<svg width="132" height="32" viewBox="0 0 132 32" fill="none" xmlns="http://www.w3.org/2000/svg">
<rect width="32" height="32" fill="#C5A059"/>
<path d="M11.4816 10.7364L8.31429 21.4059H5L5.09796 21.0962L6.40408 20.6695L9.35918 10.7197L8.26531 10.3013L8.36327 10H12.8857L12.7959 10.3013L11.4816 10.7364ZM11.7837 20.8536L14.6816 17.8243L15 18.0084L13.0653 22H12.8694L12.0041 21.4059H7.04898L7.3102 20.6109H12.5837L11.7837 20.8536Z" fill="#1F2424"/>
<path d="M19.9242 15.0594C19.6818 15.0594 19.452 15.1379 19.2348 15.295C19.0177 15.452 18.8207 15.6654 18.6439 15.9353C18.4672 16.2052 18.3157 16.5095 18.1894 16.8481C18.0631 17.1817 17.9646 17.5301 17.8939 17.8933C17.8283 18.2515 17.7955 18.5999 17.7955 18.9385C17.7955 19.4341 17.8965 19.7899 18.0985 20.0058C18.3056 20.2168 18.5909 20.3223 18.9545 20.3223C19.2121 20.3223 19.4545 20.2806 19.6818 20.1972C19.9141 20.1088 20.1389 19.9592 20.3561 19.7482C20.5783 19.5372 20.798 19.2403 21.0152 18.8575H21.3788C21.0859 19.5543 20.7828 20.0941 20.4697 20.4769C20.1566 20.8596 19.8207 21.1271 19.4621 21.2792C19.1035 21.4264 18.7045 21.5 18.2652 21.5C17.7803 21.5 17.3687 21.4141 17.0303 21.2424C16.6919 21.0657 16.4343 20.813 16.2576 20.4842C16.0859 20.1505 16 19.7531 16 19.2918C16 18.7864 16.0707 18.2981 16.2121 17.827C16.3535 17.351 16.553 16.9118 16.8106 16.5095C17.0682 16.1071 17.3712 15.7562 17.7197 15.4569C18.0682 15.1526 18.452 14.9171 18.8712 14.7503C19.2904 14.5834 19.7298 14.5 20.1894 14.5C20.6288 14.5 20.9798 14.5613 21.2424 14.684C21.5101 14.8067 21.702 14.9686 21.8182 15.1698C21.9394 15.371 22 15.5943 22 15.8396C22 16.0654 21.9545 16.2911 21.8636 16.5168C21.7778 16.7376 21.6591 16.929 21.5076 17.091C21.2298 17.2038 20.9293 17.3191 20.6061 17.4369C20.2828 17.5498 19.9419 17.6626 19.5833 17.7755C19.2298 17.8835 18.8687 17.989 18.5 18.092C18.1364 18.1951 17.7753 18.2932 17.4167 18.3864L17.447 17.8785C17.947 17.7264 18.3737 17.5792 18.7273 17.4369C19.0808 17.2897 19.3712 17.1474 19.5985 17.01C19.8308 16.8726 20.0126 16.7352 20.1439 16.5978C20.2753 16.4604 20.3662 16.3181 20.4167 16.1709C20.4722 16.0237 20.5 15.8691 20.5 15.7072C20.5 15.5698 20.4773 15.4544 20.4318 15.3612C20.3914 15.2631 20.3283 15.1894 20.2424 15.1404C20.1566 15.0864 20.0505 15.0594 19.9242 15.0594Z" fill="#1F2424"/>
<path d="M25.1538 13.5856L24.9593 13.6502L24.3369 14.4316C24.2213 14.5759 24.1152 14.69 24.0186 14.774C23.9219 14.8558 23.8276 14.9139 23.7356 14.9483C23.6437 14.9828 23.5458 15 23.4421 15C23.2959 15 23.1863 14.9645 23.1132 14.8934C23.0377 14.8202 23 14.732 23 14.6286C23 14.5447 23.0212 14.4715 23.0637 14.409C23.1037 14.3466 23.1556 14.2982 23.2193 14.2637C23.2829 14.2293 23.3466 14.2121 23.4103 14.2121C23.4409 14.2121 23.4692 14.2228 23.4951 14.2443C23.5211 14.2659 23.5505 14.296 23.5836 14.3348C23.6142 14.3735 23.6437 14.4026 23.672 14.422C23.7026 14.4392 23.7333 14.4478 23.7639 14.4478C23.8111 14.4478 23.863 14.4338 23.9195 14.4058C23.9785 14.3757 24.048 14.324 24.1282 14.2508C24.2107 14.1755 24.305 14.0721 24.4111 13.9408L24.8709 13.3789L25.069 13.3143L25.6525 12.5748C25.7681 12.4306 25.8742 12.3175 25.9708 12.2357C26.0698 12.1518 26.1665 12.0915 26.2608 12.0549C26.3551 12.0183 26.453 12 26.5544 12C26.6982 12 26.8078 12.0366 26.8833 12.1098C26.9611 12.183 27 12.2702 27 12.3714C27 12.4532 26.9788 12.5264 26.9363 12.591C26.8939 12.6534 26.8408 12.7018 26.7772 12.7363C26.7159 12.7707 26.6534 12.7879 26.5897 12.7879C26.5615 12.7879 26.5343 12.7793 26.5084 12.7621C26.4848 12.7449 26.4553 12.7147 26.42 12.6717C26.3846 12.6286 26.3516 12.5985 26.321 12.5813C26.2927 12.5619 26.2632 12.5522 26.2325 12.5522C26.183 12.5522 26.1264 12.5684 26.0628 12.6006C26.0015 12.6308 25.9296 12.6835 25.847 12.7589C25.7669 12.8321 25.6773 12.9322 25.5782 13.0592L25.1538 13.5856ZM26.5827 13.8956C26.4247 14.1948 26.2809 14.4241 26.1512 14.5834C26.0215 14.7427 25.8954 14.8525 25.7728 14.9128C25.6502 14.9709 25.5193 15 25.3802 15C25.3095 15 25.2505 14.9903 25.2034 14.9709C25.1586 14.9537 25.1208 14.9236 25.0902 14.8805C25.0619 14.8353 25.0371 14.775 25.0159 14.6997L24.496 12.6006C24.4842 12.549 24.4736 12.5167 24.4642 12.5038C24.4548 12.4887 24.4394 12.4812 24.4182 12.4812C24.3357 12.4812 24.2414 12.5307 24.1353 12.6297C24.0292 12.7266 23.9219 12.8967 23.8134 13.1399L23.6154 13.1076C23.7168 12.8256 23.824 12.6039 23.9372 12.4424C24.0504 12.2809 24.1706 12.1668 24.298 12.1001C24.4253 12.0334 24.5597 12 24.7011 12C24.7695 12 24.8261 12.0097 24.8709 12.0291C24.9157 12.0484 24.9523 12.0807 24.9805 12.1259C25.0088 12.169 25.0324 12.2282 25.0513 12.3036L25.557 14.3703C25.5759 14.4435 25.59 14.4887 25.5995 14.5059C25.6113 14.5231 25.6313 14.5318 25.6596 14.5318C25.7162 14.5318 25.7775 14.5145 25.8435 14.4801C25.9119 14.4456 25.9909 14.38 26.0805 14.2831C26.1701 14.1841 26.2773 14.0431 26.4023 13.8601L26.5827 13.8956Z" fill="#1F2424"/>
<path d="M53.0163 7.19558L47.2873 26.0569H42L42.162 25.5412L44.5774 24.8192L49.9382 7.16611L47.8764 6.48828L48.0384 5.97254H55.579L55.417 6.48828L53.0163 7.19558ZM53.8116 25.1286L58.7307 20.0743L59.2462 20.3838L55.9766 27H55.7115L54.1504 26.0569H45.5199L45.947 24.775H55.0635L53.8116 25.1286Z" fill="#1F2424"/>
<path d="M67.8347 13.4729C67.2849 13.4729 66.7793 13.6497 66.3178 14.0033C65.8661 14.3472 65.4587 14.8138 65.0954 15.4032C64.7419 15.9828 64.4375 16.6312 64.1823 17.3483C63.927 18.0556 63.7306 18.7776 63.5932 19.5144C63.4655 20.2413 63.4017 20.9241 63.4017 21.5626C63.4017 22.5745 63.5981 23.2965 63.9908 23.7287C64.3934 24.1512 64.9334 24.3624 65.6109 24.3624C66.1018 24.3624 66.5632 24.2739 66.9953 24.0971C67.4371 23.9203 67.8691 23.6158 68.2913 23.1835C68.7135 22.7415 69.1308 22.1275 69.5432 21.3416H70.2206C69.6708 22.658 69.1111 23.6845 68.5417 24.4213C67.982 25.1482 67.3831 25.6591 66.7449 25.9538C66.1067 26.2387 65.3948 26.3811 64.6094 26.3811C63.765 26.3811 63.0384 26.2239 62.4297 25.9096C61.8307 25.5854 61.3693 25.1188 61.0453 24.5097C60.7311 23.8908 60.574 23.1393 60.574 22.2552C60.574 21.2335 60.7065 20.2413 60.9716 19.2786C61.2367 18.3159 61.6098 17.4269 62.0909 16.6115C62.572 15.7863 63.1317 15.0643 63.7699 14.4454C64.4179 13.8265 65.1248 13.3452 65.8907 13.0013C66.6565 12.6477 67.4567 12.4709 68.2913 12.4709C69.0571 12.4709 69.6757 12.5937 70.147 12.8392C70.6183 13.075 70.9619 13.3943 71.1779 13.7971C71.3939 14.19 71.5019 14.6173 71.5019 15.079C71.5019 15.5211 71.4136 15.9632 71.2368 16.4052C71.0699 16.8375 70.8392 17.2009 70.5446 17.4956C70.0341 17.7216 69.4744 17.9524 68.8657 18.1882C68.2668 18.4142 67.6384 18.6401 66.9805 18.866C66.3227 19.092 65.655 19.313 64.9776 19.5291C64.3001 19.7453 63.6226 19.9466 62.9451 20.1333L63.004 19.1755C63.9859 18.871 64.8254 18.5762 65.5225 18.2914C66.2294 18.0065 66.8136 17.7265 67.2751 17.4514C67.7366 17.1764 68.0949 16.9013 68.3502 16.6263C68.6153 16.3414 68.8019 16.0516 68.9099 15.7569C69.0277 15.4622 69.0866 15.1576 69.0866 14.8433C69.0866 14.5584 69.0375 14.3177 68.9393 14.1212C68.8411 13.9149 68.6988 13.7578 68.5122 13.6497C68.3257 13.5318 68.0998 13.4729 67.8347 13.4729Z" fill="#1F2424"/>
<path d="M79.364 19.706L78.5393 20.0596L76.0797 23.6845C75.6183 24.3624 75.1863 24.8977 74.7837 25.2907C74.3811 25.6836 73.9835 25.9636 73.5907 26.1306C73.198 26.2976 72.7856 26.3811 72.3536 26.3811C71.7841 26.3811 71.3472 26.2239 71.0429 25.9096C70.7385 25.5854 70.5863 25.1974 70.5863 24.7455C70.5863 24.3624 70.6697 24.0284 70.8367 23.7435C70.9938 23.4586 71.2049 23.2376 71.47 23.0804C71.7351 22.9134 72.0198 22.8299 72.3242 22.8299C72.5303 22.8299 72.6874 22.8839 72.7955 22.992C72.9035 23.0902 72.9967 23.2474 73.0753 23.4635C73.1636 23.6698 73.2569 23.8171 73.3551 23.9056C73.4631 23.994 73.5957 24.0382 73.7528 24.0382C73.9491 24.0382 74.1749 23.9694 74.4302 23.8319C74.6855 23.6845 74.9752 23.4438 75.2992 23.1098C75.633 22.7758 76.0012 22.319 76.4037 21.7395L78.2594 19.0576L79.0989 18.6892L81.5732 15.079C82.0248 14.4209 82.447 13.9051 82.8398 13.5318C83.2325 13.1487 83.6203 12.8785 84.0033 12.7214C84.3862 12.5544 84.7887 12.4709 85.2109 12.4709C85.7804 12.4709 86.2173 12.633 86.5217 12.9571C86.8359 13.2715 86.993 13.6546 86.993 14.1065C86.993 14.47 86.9095 14.7991 86.7426 15.0938C86.5855 15.3885 86.3744 15.6193 86.1093 15.7863C85.8442 15.9435 85.5546 16.0221 85.2404 16.0221C85.0538 16.0221 84.9066 15.9828 84.7985 15.9042C84.7004 15.8158 84.6022 15.6537 84.504 15.4179C84.4156 15.192 84.3174 15.0348 84.2094 14.9464C84.1113 14.858 83.9787 14.8138 83.8118 14.8138C83.5958 14.8138 83.3503 14.8924 83.0754 15.0496C82.8103 15.1969 82.5108 15.4474 82.177 15.8011C81.8432 16.1449 81.4701 16.6213 81.0577 17.2304L79.364 19.706ZM85.0047 20.9437C84.4647 22.4075 83.9542 23.5323 83.4731 24.3182C83.0018 25.104 82.5108 25.6443 82.0003 25.939C81.4995 26.2338 80.9448 26.3811 80.336 26.3811C80.0513 26.3811 79.8059 26.3369 79.5997 26.2485C79.4033 26.1601 79.2413 26.0127 79.1136 25.8064C78.986 25.5903 78.878 25.3005 78.7896 24.937L76.6836 15.1969C76.6345 14.9415 76.5805 14.7745 76.5216 14.6959C76.4725 14.6075 76.3939 14.5633 76.2859 14.5633C75.9423 14.5633 75.5692 14.7991 75.1666 15.2706C74.7739 15.7421 74.3762 16.582 73.9737 17.7904H73.3551C73.6889 16.415 74.0669 15.3443 74.4891 14.578C74.9113 13.802 75.3777 13.2568 75.8883 12.9424C76.3988 12.628 76.9487 12.4709 77.5378 12.4709C77.8127 12.4709 78.0434 12.52 78.23 12.6182C78.4263 12.7066 78.5884 12.8589 78.716 13.075C78.8436 13.2813 78.9467 13.5662 79.0253 13.9297L81.0724 23.5519C81.151 23.8957 81.2197 24.1119 81.2786 24.2003C81.3375 24.2887 81.4357 24.3329 81.5732 24.3329C81.8186 24.3329 82.069 24.2445 82.3243 24.0676C82.5894 23.881 82.8889 23.5421 83.2227 23.0509C83.5565 22.5597 83.9493 21.8573 84.4009 20.9437H85.0047Z" fill="#1F2424"/>
<path d="M86.8855 25.0697L90.862 14.136L91.3775 14.637C91.0142 14.6075 90.6214 14.6714 90.1993 14.8285C89.7771 14.9857 89.3254 15.2411 88.8443 15.5948C88.373 15.9484 87.8674 16.415 87.3273 16.9946L86.9297 16.6263C87.6563 15.5751 88.3386 14.7499 88.9769 14.1507C89.6249 13.5515 90.2385 13.1241 90.8178 12.8687C91.3971 12.6133 91.9519 12.4856 92.4821 12.4856C93.0221 12.4856 93.3903 12.5986 93.5866 12.8245C93.783 13.0406 93.8075 13.355 93.6603 13.7676L89.6691 24.937L89.2125 24.2739C89.5561 24.3231 89.9391 24.2887 90.3613 24.1708C90.7835 24.0431 91.2498 23.8171 91.7604 23.493C92.271 23.159 92.8208 22.7071 93.4099 22.1373L93.7781 22.5352C93.0417 23.4684 92.3495 24.2199 91.7015 24.7897C91.0535 25.3496 90.4398 25.7573 89.8605 26.0127C89.291 26.2583 88.7461 26.3811 88.2257 26.3811C87.5875 26.3811 87.1604 26.2731 86.9444 26.0569C86.7382 25.8506 86.7186 25.5215 86.8855 25.0697ZM92.0991 6.91561C92.0991 6.55213 92.1777 6.22795 92.3348 5.94307C92.5017 5.65818 92.7275 5.43224 93.0122 5.26524C93.3068 5.08841 93.6455 5 94.0285 5C94.5979 5 95.0545 5.18174 95.3981 5.54521C95.7516 5.90868 95.9283 6.35566 95.9283 6.88613C95.9283 7.24961 95.8449 7.5787 95.678 7.87341C95.5209 8.15829 95.2951 8.38915 95.0005 8.56597C94.7158 8.73298 94.3819 8.81648 93.999 8.81648C93.4295 8.81648 92.9681 8.63474 92.6146 8.27127C92.271 7.89797 92.0991 7.44608 92.0991 6.91561Z" fill="#1F2424"/>
<path d="M102.823 25.2612L104.399 20.0154L104.575 20.0891C103.888 21.3269 103.26 22.3583 102.69 23.1835C102.121 23.9989 101.581 24.6423 101.07 25.1139C100.569 25.5756 100.083 25.8998 99.6121 26.0864C99.1408 26.2829 98.6548 26.3811 98.1541 26.3811C97.349 26.3811 96.7746 26.1994 96.4309 25.8359C96.0873 25.4626 95.9155 24.9812 95.9155 24.3918C95.9155 24.0775 95.9596 23.714 96.048 23.3014C96.1462 22.8888 96.2886 22.4369 96.4751 21.9457L99.4501 13.9149L99.9361 14.637C99.5728 14.5977 99.1703 14.6517 98.7285 14.7991C98.2866 14.9464 97.8104 15.2018 97.2999 15.5653C96.7991 15.919 96.2689 16.3954 95.7093 16.9946L95.2822 16.6263C96.0185 15.6046 96.7107 14.7942 97.3588 14.1949C98.0166 13.5858 98.6401 13.1487 99.2292 12.8835C99.8281 12.6182 100.403 12.4856 100.952 12.4856C101.512 12.4856 101.9 12.5937 102.116 12.8098C102.342 13.0161 102.371 13.3403 102.204 13.7823L99.0525 22.1815C98.9543 22.4664 98.8757 22.7071 98.8168 22.9035C98.7677 23.1 98.7432 23.2719 98.7432 23.4193C98.7432 23.6747 98.8217 23.8663 98.9788 23.994C99.1457 24.1217 99.3912 24.1855 99.7152 24.1855C100.098 24.1855 100.52 24.0234 100.982 23.6993C101.453 23.3751 101.924 22.9281 102.396 22.3583C102.877 21.7886 103.324 21.1206 103.736 20.3543C104.158 19.5881 104.512 18.758 104.796 17.864L106.402 12.795H109.097L105.312 24.8634L105.047 24.2739C105.39 24.3034 105.778 24.2494 106.21 24.1119C106.642 23.9743 107.109 23.7386 107.609 23.4046C108.11 23.0607 108.625 22.6138 109.156 22.0636L109.539 22.4615C108.459 23.9056 107.467 24.9223 106.564 25.5117C105.67 26.0913 104.855 26.3811 104.119 26.3811C103.559 26.3811 103.176 26.2878 102.97 26.1011C102.764 25.9243 102.715 25.6443 102.823 25.2612Z" fill="#1F2424"/>
<path d="M127.744 24.937L127.479 24.2887C127.832 24.2985 128.22 24.2347 128.642 24.0971C129.074 23.9498 129.536 23.714 130.026 23.3898C130.527 23.0558 131.053 22.6236 131.602 22.0931L132 22.4762C131.254 23.4291 130.547 24.1954 129.879 24.775C129.221 25.3447 128.603 25.7573 128.024 26.0127C127.444 26.2583 126.889 26.3811 126.359 26.3811C125.662 26.3811 125.215 26.2632 125.019 26.0275C124.823 25.7917 124.842 25.3791 125.078 24.7897L128.156 16.9504C128.303 16.5771 128.406 16.2824 128.465 16.0663C128.534 15.8404 128.568 15.6488 128.568 15.4916C128.568 15.2362 128.49 15.0397 128.333 14.9022C128.176 14.7549 127.911 14.6812 127.537 14.6812C127.115 14.6812 126.659 14.8482 126.168 15.1822C125.677 15.5162 125.186 15.9877 124.695 16.5968C124.204 17.196 123.738 17.8984 123.296 18.704C122.854 19.5095 122.471 20.3789 122.147 21.3121L120.586 26.0569H117.847L120.969 16.7147C121.047 16.5084 121.106 16.3315 121.146 16.1842C121.185 16.027 121.214 15.8895 121.234 15.7716C121.263 15.6439 121.278 15.5309 121.278 15.4327C121.278 15.1871 121.2 15.0004 121.043 14.8727C120.895 14.745 120.65 14.6812 120.306 14.6812C119.894 14.6812 119.442 14.858 118.951 15.2117C118.47 15.5555 117.984 16.0417 117.493 16.6705C117.012 17.2992 116.556 18.0359 116.124 18.8808C115.691 19.7158 115.323 20.6245 115.019 21.6068L113.605 26.0569H110.91L114.43 14.8138C114.41 14.7647 114.381 14.7205 114.341 14.6812C114.312 14.6419 114.263 14.6222 114.194 14.6222C113.87 14.6222 113.541 14.7008 113.207 14.858C112.874 15.0152 112.525 15.305 112.162 15.7274C111.798 16.14 111.401 16.7392 110.969 17.5251L110.483 17.3336C110.964 16.086 111.465 15.1134 111.985 14.4159C112.515 13.7185 113.07 13.2224 113.649 12.9277C114.238 12.633 114.852 12.4856 115.49 12.4856C115.736 12.4856 115.962 12.5003 116.168 12.5298C116.374 12.5495 116.58 12.5838 116.786 12.633C116.992 12.6722 117.208 12.7263 117.434 12.795L115.623 18.6745L115.52 18.6155C116.178 17.3974 116.786 16.3905 117.346 15.5948C117.906 14.7991 118.431 14.1753 118.922 13.7234C119.423 13.2617 119.904 12.9375 120.365 12.7508C120.836 12.5642 121.308 12.4709 121.779 12.4709C122.574 12.4709 123.149 12.6379 123.502 12.9719C123.856 13.3059 124.032 13.7528 124.032 14.3128C124.032 14.5977 123.988 14.9219 123.9 15.2853C123.821 15.6488 123.708 16.0712 123.561 16.5526L122.972 18.4387H122.78C123.399 17.2992 123.983 16.3463 124.533 15.58C125.083 14.8138 125.608 14.2047 126.109 13.7528C126.619 13.2911 127.115 12.962 127.596 12.7656C128.087 12.5691 128.573 12.4709 129.054 12.4709C129.928 12.4709 130.542 12.6526 130.895 13.0161C131.249 13.3697 131.426 13.8363 131.426 14.4159C131.426 14.7499 131.372 15.138 131.264 15.58C131.165 16.0123 130.989 16.5526 130.733 17.2009L127.744 24.937Z" fill="#1F2424"/>
</svg>
